<?xml version="1.0" encoding="utf-8"?>
<!-- Generator: Adobe Illustrator 21.0.2, SVG Export Plug-In . SVG Version: 6.00 Build 0)  -->
<svg version="1.1" id="Layer_1" xmlns="http://www.w3.org/2000/svg" xmlns:xlink="http://www.w3.org/1999/xlink" x="0px" y="0px"
	 viewBox="0 0 683 215" style="enable-background:new 0 0 683 215;" xml:space="preserve">
<style type="text/css">
	.st0{fill:#C0B3A0;}
	.st1{opacity:0.9;fill:#C0B3A0;enable-background:new    ;}
	.st2{font-family:'Aleo-Bold';}
	.st3{font-size:141.17px;}
</style>
<title>logo</title>
<path class="st0" d="M34,108l15,15l-18,17c0,0,14,9,29-5l15,15c0,0-34,34-75-8L34,108z"/>
<path class="st0" d="M97,88l-15,15L43,64c0,0-9,14,5,29l-14,15c0,0-34-34,8-76L97,88z"/>
<path class="st0" d="M173,108l-15-15l17-17c0,0-14-9-29,5l-15-15c0,0,34-34,75,8L173,108z"/>
<path class="st0" d="M109,128l15-15l39,39c0,0,9-14-5-29l15-15c0,0,34,34-8,75L109,128z"/>
<path class="st0" d="M101,36L87,50l-7-5c-4.9-4.7-7.4-11.3-7-18c0.3-6.8,3.2-13.2,8-18c5.3-5.3,12.5-8.2,20-8c7.9,0,15.5,3.3,21,9
	c3.1,3.1,5.5,6.9,7,11c1.7,3.8,2.4,7.9,2,12c-0.7,6-4.3,12.3-11,19L99,72c-6.7,7.3-14.3,11-23,11s-16.3-3-23-9l-6-9l14-13
	c0.6,3,2,5.7,4,8c2.2,2.7,5.5,4.2,9,4c3.3,0,6.7-1.7,10-5l23-23c4-4,4.3-7.7,1-11l-5-2l-5,2c-1.3,1.3-2,3.1-2,5c0,1.9,0.7,3.7,2,5
	L101,36z"/>
<path class="st0" d="M105,179l14-14l7,5c4.9,4.7,7.4,11.3,7,18c-0.3,6.8-3.2,13.2-8,18c-5.3,5.3-12.5,8.2-20,8c-7.9,0-15.5-3.3-21-9
	c-3.1-3.1-5.5-6.9-7-11c-1.7-3.8-2.4-7.9-2-12c0.7-6,4.3-12.3,11-19l21-21c7.3-7.3,15-11,23-11s15.3,3,22,9l6,9l-14,14
	c-0.8-2.6-2.1-5-4-7c-2.2-2.7-5.5-4.2-9-4c-3.3,0-6.7,1.7-10,5l-22,24c-4,4-4.3,7.7-1,11l5,2l5-2c1.3-1.3,2-3.1,2-5
	c0-1.9-0.7-3.7-2-5L105,179z"/>
<path class="st0" d="M118,53l49,49l-15,15l-49-49L118,53z"/>
<path class="st0" d="M87,163l-49-49l15-15l49,49L87,163z"/>
<circle class="st1" cx="103" cy="107" r="10"/>
<text transform="matrix(1 0 0 1 230 142)" class="st0 st2 st3">ganesh</text>
</svg>
