<svg id="Layer_1" data-name="Layer 1" xmlns="http://www.w3.org/2000/svg" viewBox="0 0 86.6 100"><defs><style>.cls-1{opacity:0.8;}.cls-2{fill:#c0b3a0;}.cls-3{fill:#cccccb;}</style></defs><title>logoalt</title><g class="cls-1"><path class="cls-2" d="M641.58,421.88l-2.69-1.55V418l4.72,2.73V417l-2-1.17-2.69-1.55V412l4.72,2.73V411l-2-1.17-2.69-1.55v-2.35l4.72,2.73V380.12l-24.67-14.24-6-3.44-12.67-7.31h0v50L625,419.37l-24.67,14.24-24.67-14.24v-.09L557,408.52v21.6l43.3,25,43.3-25h0v-7.07Zm-16.6-24-6-3.48v-7l6,3.48Z" transform="translate(-557.01 -355.12)"/><polygon class="cls-3" points="18.63 35.73 0 24.98 0 46.49 18.63 57.25 18.63 35.73"/></g></svg>